<svg width="400" height="400" viewBox="0 0 400 400" xmlns="http://www.w3.org/2000/svg">
  <!-- Chair outline -->
  <path d="M120 300 L120 200 L280 200 L280 300" fill="none" stroke="#666" stroke-width="2"/>
  <!-- Chair seat -->
  <path d="M120 200 L120 180 L280 180 L280 200" fill="none" stroke="#666" stroke-width="2"/>
  <!-- Chair back -->
  <path d="M120 180 L120 100 L280 100 L280 180" fill="none" stroke="#666" stroke-width="2"/>
  <!-- Chair details -->
  <line x1="160" y1="100" x2="160" y2="180" stroke="#666" stroke-width="2"/>
  <line x1="200" y1="100" x2="200" y2="180" stroke="#666" stroke-width="2"/>
  <line x1="240" y1="100" x2="240" y2="180" stroke="#666" stroke-width="2"/>
  <!-- Grid lines for puzzle pieces -->
  <line x1="100" y1="0" x2="100" y2="400" stroke="#666" stroke-width="1"/>
  <line x1="200" y1="0" x2="200" y2="400" stroke="#666" stroke-width="1"/>
  <line x1="300" y1="0" x2="300" y2="400" stroke="#666" stroke-width="1"/>
  <line x1="0" y1="100" x2="400" y2="100" stroke="#666" stroke-width="1"/>
  <line x1="0" y1="200" x2="400" y2="200" stroke="#666" stroke-width="1"/>
  <line x1="0" y1="300" x2="400" y2="300" stroke="#666" stroke-width="1"/>
</svg>
